<?xml version="1.0" encoding="UTF-8" standalone="no"?>
<!-- Created with Inkscape (http://www.inkscape.org/) -->

<svg
   width="65mm"
   height="65mm"
   viewBox="0 0 65 65"
   version="1.1"
   id="svg233"
   inkscape:version="1.2.2 (732a01da63, 2022-12-09)"
   sodipodi:docname="21.svg"
   xmlns:inkscape="http://www.inkscape.org/namespaces/inkscape"
   xmlns:sodipodi="http://sodipodi.sourceforge.net/DTD/sodipodi-0.dtd"
   xmlns="http://www.w3.org/2000/svg"
   xmlns:svg="http://www.w3.org/2000/svg">
  <sodipodi:namedview
     id="namedview235"
     pagecolor="#ffffff"
     bordercolor="#000000"
     borderopacity="0.25"
     inkscape:showpageshadow="2"
     inkscape:pageopacity="0.0"
     inkscape:pagecheckerboard="0"
     inkscape:deskcolor="#d1d1d1"
     inkscape:document-units="mm"
     showgrid="false"
     inkscape:zoom="2.9825758"
     inkscape:cx="94.213869"
     inkscape:cy="114.33071"
     inkscape:window-width="1920"
     inkscape:window-height="1017"
     inkscape:window-x="-8"
     inkscape:window-y="-8"
     inkscape:window-maximized="1"
     inkscape:current-layer="g100" />
  <defs
     id="defs230" />
  <g
     inkscape:label="Layer 1"
     inkscape:groupmode="layer"
     id="layer1">
    <g
       id="g100"
       transform="matrix(0.35277777,0,0,-0.35277777,40.564135,46.804773)"
       inkscape:label="21 circle">
      <path
         d="m -1.005842,1.5087631 v 1.271 c 2.204,0 4.238,0.042 6.104,0.128 1.609,0.083 3.199,0.146 4.769,0.19 1.566999,0.042 2.774999,0.106 3.623999,0.191 0.592,0.084 1.037,0.36 1.335,0.826 0.295,0.465 0.445,0.996 0.445,1.59 V 76.023763 c -0.425,-0.508 -1.145,-1.188 -2.162,-2.034 -1.017,-0.849 -2.142,-1.675 -3.369999,-2.48 -1.23,-0.806 -2.501,-1.506 -3.814,-2.098 -1.316,-0.594 -2.524,-0.89 -3.624,-0.89 -2.03500001,0 -3.497,0.401 -4.388,1.208 -0.89,0.804 -1.335,2.013 -1.335,3.624 0,2.881 1.482,4.323 4.451,4.323 0.846,0 1.526,-0.127 2.034,-0.381 0.509,-0.254 0.91,-0.572 1.208,-0.954 0.296,-0.381 0.509,-0.806 0.636,-1.271 0.128,-0.467 0.274,-0.871 0.445,-1.208 0.338,-0.68 0.932,-1.018 1.781,-1.018 1.1,0 2.499,0.573 4.194999,1.717 1.695,1.144 3.349,2.627 4.96,4.45 1.609,1.823 3.008,3.899 4.196,6.231 1.186,2.331 1.822,4.641 1.907,6.931 0.255,0 0.551,-0.044 0.891,-0.127 0.254,-0.086 0.592,-0.149 1.017,-0.191 0.423,-0.044 0.846,-0.108 1.272,-0.191 V 5.4507631 c 0,-1.272 0.635,-1.993 1.907,-2.162 0.847,-0.085 2.054,-0.149 3.624,-0.191 1.568,-0.044 3.157,-0.107 4.768,-0.19 1.864,-0.086 3.815,-0.128 5.85,-0.128 v -1.271 z m -17.974001,7.779 c -2.045,-3.304 -5.235,-5.605 -8.677,-6.988 -3.449,-1.38200005 -7.19,-1.80200005 -10.782,-1.43300005 -3.562,0.37900005 -6.914,1.32100005 -10.131,2.32500005 -1.611,0.505 -3.188,1.054 -4.745,1.611 -0.793,0.29 -1.523,0.532 -2.265,0.787 -0.369,0.134 -0.75,0.226 -1.126,0.342 -0.377,0.105 -0.751,0.231 -1.133,0.321 -3.035,0.806 -6.175,1.335 -9.352,1.441 l -1.192,0.046 -1.195,-0.004 c -0.799,0.012 -1.594,-0.055 -2.393,-0.087 -1.594,-0.123 -3.191,-0.303 -4.773,-0.598 -1.59,-0.265 -3.155,-0.667 -4.714,-1.112 -1.544,-0.467 -3.108,-1.012 -4.664,-1.537 l -0.217,0.527 c 1.479,0.723 2.938,1.456 4.467,2.144 1.535,0.644 3.1,1.247 4.71,1.715 3.211,0.981 6.56,1.5469999 9.946,1.7559999 3.389,0.209 6.812,-0.028 10.191,-0.5889999 0.424,-0.066 0.839,-0.169 1.26,-0.252 0.418,-0.094 0.843,-0.164 1.257,-0.277 0.831,-0.213 1.677,-0.425 2.446,-0.64 1.574,-0.428 3.136,-0.838 4.692,-1.194 3.107,-0.726 6.223,-1.13 9.222,-1.089 1.493,10e-4 2.934,0.125 4.379,0.312 1.439,0.195 2.861,0.468 4.233,0.866 0.339,0.107 0.688,0.197 1.022,0.315 0.33,0.127 0.675,0.23 0.997,0.372 0.659,0.258 1.303,0.554 1.919,0.89 l 0.467,0.249 0.445,0.278 0.448,0.2809999 0.43,0.303 c 0.299,0.194 0.557,0.428 0.836,0.648 0.143,0.11 0.279,0.221 0.395,0.331 0.122,0.112 0.252,0.219 0.364,0.343 0.96,0.942 1.751,2.149 2.288,3.509 0.54,1.363 0.814,2.884 0.685,4.52 l 0.536,0.192 c 0.974,-1.464 1.401,-3.332 1.34,-5.189 -0.063,-1.864 -0.608,-3.749 -1.616,-5.4349999 m -69.087,-2.132 c -0.655,0.221 -0.746,0.759 -0.218,1.198 0.315,0.262 0.685,0.474 1.059,0.643 2.641,1.1849999 5.301,2.3289999 7.934,3.5309999 6.89,3.145 13.137,7.248 18.508,12.618 4.407,4.405 7.915,9.426 10.221,15.246 1.232,3.107 2.004,6.326 2.402,9.644 0.418,3.484 0.557,6.974 0.354,10.475 -0.265,4.566 -0.898,9.078 -2.361,13.429 -0.968,2.878 -2.515,5.427 -4.765,7.509 -2.046,1.894 -4.458,2.967 -7.234,3.218 -5.048,0.454 -9.583,-0.862 -13.605,-3.949 -1.989,-1.526 -3.418,-3.441 -4.125,-5.866 -0.293,-1.007 -0.42,-2.032 -0.322,-3.154 0.136,0.093 0.243,0.155 0.337,0.232 1.11,0.914 2.317,1.652 3.648,2.222 3.326,1.424 6.384,0.895 9.219,-1.205 1.607,-1.19 2.613,-2.806 3.075,-4.768 0.569,-2.411 0.649,-4.817 -0.003,-7.22 -0.934,-3.44 -3.091,-5.718 -6.539,-6.69 -3.378,-0.952 -6.61,-0.627 -9.608,1.293 -1.565,1.003 -2.588,2.462 -3.369,4.117 -1.504,3.19 -2.037,6.539 -1.646,10.035 0.535,4.789 2.448,8.932 5.951,12.274 3.126,2.982 6.837,4.903 11.074,5.759 1.266,0.256 2.562,0.364 3.845,0.542 0.095,0.013 0.188,0.04 0.282,0.061 h 3.524 c 0.691,-0.074 1.384,-0.133 2.073,-0.224 3.424,-0.453 6.758,-1.238 9.827,-2.884 3.662,-1.964 6.455,-4.842 8.589,-8.376 2.241,-3.711 3.562,-7.737 3.955,-12.05 0.189,-2.08 0.33,-4.171 0.351,-6.259 0.062,-6.143 -1.362,-11.967 -3.971,-17.51 -2.505,-5.323 -5.993,-9.921 -10.263,-13.953 -6.059,-5.722 -12.971,-10.168 -20.457,-13.764 -4.886,-2.346 -9.935,-4.2799999 -15.092,-5.9409999 -0.451,-0.145 -0.9,-0.347 -1.363,-0.394 -0.421,-0.043 -0.883,0.025 -1.287,0.161 m 64.519,49.8369999 c 2.929,0.024 5.355,-2.343 5.392,-5.259 0.037,-2.968 -2.218,-5.283 -5.186,-5.324 -3.072,-0.044 -5.357,2.184 -5.392,5.257 -0.034,2.957 2.25,5.302 5.186,5.326 m -0.022,23.815 c 3.117,0.034 5.393,-2.196 5.414,-5.308 0.021,-2.938 -2.278,-5.247 -5.244,-5.269 -3.025,-0.022 -5.306,2.236 -5.333,5.284 -0.027,2.961 2.215,5.26 5.163,5.293 m 0.116,51.499997 c -50.071,0 -90.660987,-40.590997 -90.660987,-90.661997 0,-50.0709999 40.589987,-90.661 90.660987,-90.661 50.071,0 90.662,40.5900001 90.662,90.661 0,50.071 -40.591,90.661997 -90.662,90.661997"
         style="fill:#01173a;fill-opacity:1;fill-rule:nonzero;stroke:none"
         id="path102"
         inkscape:label="path102" />
      <path
         style="fill:#ffffff;stroke-width:0.335281"
         d="m 35.964436,167.12903 c -0.47276,-0.19014 -0.678013,-0.48562 -0.556782,-0.80154 0.213701,-0.5569 0.809442,-0.85821 8.011193,-4.05191 12.452054,-5.52201 20.030751,-10.30463 27.543538,-17.38168 9.086274,-8.55927 15.288527,-19.21574 17.542743,-30.14124 2.745523,-13.30672 1.103969,-31.18561 -3.719593,-40.511735 -2.501352,-4.836236 -6.506819,-8.350416 -11.112241,-9.749269 -1.971957,-0.598963 -2.919366,-0.676361 -6.719536,-0.548949 -3.686042,0.123586 -4.865649,0.300144 -7.072348,1.058553 -7.850257,2.698017 -13.175605,8.279704 -13.556261,14.208799 -0.07399,1.152527 -0.04661,2.095504 0.06085,2.095504 0.107463,0 1.121454,-0.598546 2.253313,-1.330102 1.131859,-0.731556 2.909746,-1.650016 3.95086,-2.041021 5.599704,-2.103052 12.679427,1.043344 14.79694,6.576108 1.062641,2.77653 1.314095,7.977772 0.51888,10.732843 -1.652777,5.726149 -5.01476,8.654079 -11.006633,9.585619 -4.108917,0.6388 -8.584655,-0.58396 -11.496856,-3.14091 -3.997761,-3.510081 -6.306779,-11.953726 -5.179626,-18.940912 1.239842,-7.685727 5.175377,-13.774792 11.741884,-18.167057 5.423204,-3.627522 11.065145,-5.205506 18.611818,-5.205506 13.673484,0 23.708883,5.39996 29.773141,16.020665 3.78119,6.622223 5.0453,12.370757 5.05984,23.009587 0.008,6.212753 -0.0926,7.679303 -0.73185,10.616443 -1.64628,7.56425 -4.40042,14.09137 -8.620038,20.42887 -10.011809,15.03689 -28.749944,27.79365 -53.089373,36.14279 -5.816522,1.99524 -5.846052,2.00171 -7.003865,1.53605 z"
         id="path503"
         transform="matrix(0.75000002,0,0,-0.75000002,-114.98495,132.67495)" />
      <path
         style="fill:#ffffff;stroke-width:0.335281"
         d="m 101.33602,175.50451 c -3.837206,-0.47756 -9.076576,-1.85752 -16.51001,-4.34845 -3.78029,-1.26677 -8.122289,-2.61806 -9.648882,-3.00287 -10.855696,-2.7364 -22.740102,-2.11008 -34.189066,1.80181 -1.336932,0.45681 -2.430785,0.70765 -2.430785,0.55743 0,-0.37605 7.204208,-3.55392 10.708263,-4.72356 3.844438,-1.28326 8.752274,-2.24913 13.616978,-2.67986 6.55063,-0.57999 11.985549,0.0214 21.275941,2.3543 10.988828,2.75938 16.026021,3.37174 22.231481,2.70263 7.35174,-0.7927 13.10507,-2.91607 16.8999,-6.23721 2.41589,-2.11433 4.14066,-5.60802 4.37322,-8.85839 0.0929,-1.29892 0.2957,-2.36168 0.4506,-2.36168 0.4817,0 1.2218,1.76192 1.64618,3.91902 1.98078,10.0681 -9.12894,20.28307 -22.85341,21.01286 -1.72538,0.0917 -4.23207,0.0305 -5.57041,-0.13603 z"
         id="path574"
         transform="matrix(0.75000002,0,0,-0.75000002,-114.98495,132.67495)" />
      <path
         style="fill:#ffffff;stroke-width:0.335281"
         d="m 152.21742,174.1935 c 0,-0.88394 0.56875,-0.94826 10.49595,-1.18695 4.57413,-0.10998 8.71094,-0.34989 9.19289,-0.53313 1.85153,-0.70395 1.74698,2.23325 1.75846,-49.39747 l 0.0107,-47.917199 -1.2573,1.277361 c -1.69654,1.723597 -6.03766,4.938996 -8.61139,6.378306 -5.66414,3.167565 -10.48547,3.361922 -13.31081,0.536584 -2.65114,-2.651138 -1.90985,-7.968426 1.29773,-9.308638 0.8273,-0.34567 1.93338,-0.472949 3.33463,-0.383725 2.56997,0.163643 3.44273,0.865016 4.80554,3.861853 1.04904,2.306863 1.71609,2.694531 3.93684,2.287977 2.54778,-0.466422 7.22971,-3.657241 10.24613,-6.982922 4.99554,-5.507713 8.03198,-11.105605 8.98147,-16.557977 0.30041,-1.725129 0.48007,-2.112787 0.92338,-1.992436 0.30272,0.08218 1.11619,0.244872 1.8077,0.361532 l 1.2573,0.212109 0.002,57.233985 c 0.001,39.39967 0.11297,57.6341 0.35843,58.51806 0.55943,2.01466 1.27835,2.17319 10.9059,2.40484 9.96002,0.23965 10.5269,0.30362 10.5269,1.18784 0,0.64513 -0.44245,0.65537 -28.33122,0.65537 -27.88877,0 -28.33122,-0.0102 -28.33122,-0.65537 z"
         id="path576"
         transform="matrix(0.75000002,0,0,-0.75000002,-114.98495,132.67495)" />
      <path
         style="fill:#ffffff;stroke-width:0.335281"
         d="m 118.88887,82.222069 c -0.72009,-0.411876 -1.77177,-1.323157 -2.33707,-2.025068 -0.87324,-1.084257 -1.04718,-1.618686 -1.15649,-3.553319 -0.2241,-3.966021 1.7704,-6.505124 5.68704,-7.23989 2.36417,-0.44352 5.54573,1.029285 6.77675,3.13708 2.75017,4.708946 -0.49007,10.452363 -5.8874,10.435579 -1.21319,-0.0038 -2.18726,-0.242133 -3.08283,-0.754382 z"
         id="path578"
         transform="matrix(0.75000002,0,0,-0.75000002,-114.98495,132.67495)" />
      <path
         style="fill:#ffffff;stroke-width:0.335281"
         d="m 119.36231,114.29953 c -4.42226,-1.91774 -5.48834,-8.14342 -1.95831,-11.43618 3.75561,-3.503173 10.19336,-1.34488 11.35528,3.80691 1.16398,5.16092 -4.49474,9.75515 -9.39697,7.62927 z"
         id="path580"
         transform="matrix(0.75000002,0,0,-0.75000002,-114.98495,132.67495)" />
    </g>
  </g>
</svg>
